<svg width="24" height="24" viewBox="0 0 24 24" fill="none" xmlns="http://www.w3.org/2000/svg">
<path fill-rule="evenodd" clip-rule="evenodd" d="M12 9.77779C12.9205 9.77779 13.6666 9.0316 13.6666 8.11112C13.6666 7.19065 12.9205 6.44446 12 6.44446C11.0795 6.44446 10.3333 7.19065 10.3333 8.11112C10.3333 9.0316 11.0795 9.77779 12 9.77779Z" stroke="#787B7E" stroke-width="1.5" stroke-linecap="round" stroke-linejoin="round"/>
<path fill-rule="evenodd" clip-rule="evenodd" d="M19.7778 22H4.22222C2.99444 22 2 21.0056 2 19.7778V4.22222C2 2.99444 2.99444 2 4.22222 2H19.7778C21.0056 2 22 2.99444 22 4.22222V19.7778C22 21.0056 21.0056 22 19.7778 22Z" stroke="#787B7E" stroke-width="1.5" stroke-linecap="round" stroke-linejoin="round"/>
<path d="M5.33331 16.4445H18.6666" stroke="#787B7E" stroke-width="1.5" stroke-linecap="round" stroke-linejoin="round"/>
<path d="M6.2722 16.4444L6.24109 15.8311C6.07664 12.5378 8.70331 9.77777 12 9.77777V9.77777C15.2966 9.77777 17.9233 12.5378 17.7589 15.8311L17.7278 16.4444" stroke="#787B7E" stroke-width="1.5" stroke-linecap="round" stroke-linejoin="round"/>
</svg>
