<svg width="26" height="26" viewBox="0 0 26 26" fill="none" xmlns="http://www.w3.org/2000/svg">
<g filter="url(#filter0_d_4407_12724)">
<path d="M13.5166 17.3417C13.2333 17.4417 12.7666 17.4417 12.4833 17.3417C10.0666 16.5167 4.66663 13.075 4.66663 7.24168C4.66663 4.66668 6.74163 2.58334 9.29996 2.58334C10.8166 2.58334 12.1583 3.31668 13 4.45001C13.8416 3.31668 15.1916 2.58334 16.7 2.58334C19.2583 2.58334 21.3333 4.66668 21.3333 7.24168C21.3333 13.075 15.9333 16.5167 13.5166 17.3417Z" fill="#2958FF"/>
<path d="M13.5166 17.3417C13.2333 17.4417 12.7666 17.4417 12.4833 17.3417C10.0666 16.5167 4.66663 13.075 4.66663 7.24168C4.66663 4.66668 6.74163 2.58334 9.29996 2.58334C10.8166 2.58334 12.1583 3.31668 13 4.45001C13.8416 3.31668 15.1916 2.58334 16.7 2.58334C19.2583 2.58334 21.3333 4.66668 21.3333 7.24168C21.3333 13.075 15.9333 16.5167 13.5166 17.3417Z" fill="#0A8CEB"/>
<path d="M13.5166 17.3417C13.2333 17.4417 12.7666 17.4417 12.4833 17.3417C10.0666 16.5167 4.66663 13.075 4.66663 7.24168C4.66663 4.66668 6.74163 2.58334 9.29996 2.58334C10.8166 2.58334 12.1583 3.31668 13 4.45001C13.8416 3.31668 15.1916 2.58334 16.7 2.58334C19.2583 2.58334 21.3333 4.66668 21.3333 7.24168C21.3333 13.075 15.9333 16.5167 13.5166 17.3417Z" fill="#18B2E2"/>
<path d="M13.5166 17.3417C13.2333 17.4417 12.7666 17.4417 12.4833 17.3417C10.0666 16.5167 4.66663 13.075 4.66663 7.24168C4.66663 4.66668 6.74163 2.58334 9.29996 2.58334C10.8166 2.58334 12.1583 3.31668 13 4.45001C13.8416 3.31668 15.1916 2.58334 16.7 2.58334C19.2583 2.58334 21.3333 4.66668 21.3333 7.24168C21.3333 13.075 15.9333 16.5167 13.5166 17.3417Z" fill="#3EAAD2"/>
</g>
<defs>
<filter id="filter0_d_4407_12724" x="-1" y="0" width="28" height="28" filterUnits="userSpaceOnUse" color-interpolation-filters="sRGB">
<feFlood flood-opacity="0" result="BackgroundImageFix"/>
<feColorMatrix in="SourceAlpha" type="matrix" values="0 0 0 0 0 0 0 0 0 0 0 0 0 0 0 0 0 0 127 0" result="hardAlpha"/>
<feOffset dy="4"/>
<feGaussianBlur stdDeviation="2"/>
<feComposite in2="hardAlpha" operator="out"/>
<feColorMatrix type="matrix" values="0 0 0 0 0 0 0 0 0 0 0 0 0 0 0 0 0 0 0.25 0"/>
<feBlend mode="normal" in2="BackgroundImageFix" result="effect1_dropShadow_4407_12724"/>
<feBlend mode="normal" in="SourceGraphic" in2="effect1_dropShadow_4407_12724" result="shape"/>
</filter>
</defs>
</svg>
