<svg width="12" height="12" viewBox="0 0 12 12" fill="none" xmlns="http://www.w3.org/2000/svg">
<path d="M7.59995 1.5999C7.59995 2.2799 7.07995 2.7999 6.39995 2.7999C5.71995 2.7999 5.19995 2.2799 5.19995 1.5999C5.19995 0.919902 5.71995 0.399902 6.39995 0.399902C7.07995 0.399902 7.59995 0.919902 7.59995 1.5999ZM9.31995 6.2399C9.07995 6.1599 7.63995 5.4799 7.63995 5.4799L6.83995 3.8799C6.55995 3.3199 6.39995 3.1999 6.03995 3.1999H5.47995C5.19995 3.1999 5.07995 3.2799 4.91995 3.3999L3.39995 4.5999C3.27995 4.6799 3.19995 4.7599 3.11995 4.9199L2.79995 6.9199C2.75995 7.2399 2.91995 7.3599 3.15995 7.3999C3.31995 7.4399 3.55995 7.3599 3.63995 7.1199C3.67995 6.9199 3.99995 5.2799 3.99995 5.2799L4.99995 4.5999C4.83995 5.2799 4.67995 6.0399 4.59995 6.3199C4.51995 6.7599 4.75995 7.0799 4.91995 7.3599C5.07995 7.5999 7.31995 10.8399 7.59995 11.1999C7.87995 11.5599 8.15995 11.7199 8.55995 11.5199C8.91995 11.3599 8.83995 10.9199 8.63995 10.6399C8.43995 10.3599 6.19995 6.9599 6.19995 6.9599L6.55995 5.4399C6.55995 5.4399 6.83995 5.7999 6.95995 5.9599C7.03995 6.0399 7.07995 6.0799 7.27995 6.1599C7.47995 6.2799 8.47995 6.6799 8.79995 6.7999C9.07995 6.9199 9.39995 6.9599 9.55995 6.7199C9.67995 6.5599 9.51995 6.3199 9.31995 6.2399Z" fill="#777D82"/>
<path d="M4.31999 7.6001L3.83999 9.0801C3.83999 9.0801 2.87999 10.3201 2.59999 10.6801C2.39999 10.9601 2.23999 11.2801 2.59999 11.5201C2.99999 11.8001 3.27999 11.4401 3.47999 11.2401C3.67999 11.0401 4.39999 10.1201 4.59999 9.8801C4.75999 9.7201 4.79999 9.6001 4.87999 9.4401C4.91999 9.3601 5.07999 8.9601 5.15999 8.7201L4.31999 7.6001Z" fill="#777D82"/>
</svg>
