<svg width="36" height="36" viewBox="0 0 36 36" fill="none" xmlns="http://www.w3.org/2000/svg">
<path d="M12 3V7.5" stroke="#2958FF" stroke-width="2" stroke-miterlimit="10" stroke-linecap="round" stroke-linejoin="round"/>
<path d="M12 3V7.5" stroke="#0A8CEB" stroke-width="2" stroke-miterlimit="10" stroke-linecap="round" stroke-linejoin="round"/>
<path d="M12 3V7.5" stroke="#18B2E2" stroke-width="2" stroke-miterlimit="10" stroke-linecap="round" stroke-linejoin="round"/>
<path d="M12 3V7.5" stroke="#3EAAD2" stroke-width="2" stroke-miterlimit="10" stroke-linecap="round" stroke-linejoin="round"/>
<path d="M24 3V7.5" stroke="#2958FF" stroke-width="2" stroke-miterlimit="10" stroke-linecap="round" stroke-linejoin="round"/>
<path d="M24 3V7.5" stroke="#0A8CEB" stroke-width="2" stroke-miterlimit="10" stroke-linecap="round" stroke-linejoin="round"/>
<path d="M24 3V7.5" stroke="#18B2E2" stroke-width="2" stroke-miterlimit="10" stroke-linecap="round" stroke-linejoin="round"/>
<path d="M24 3V7.5" stroke="#3EAAD2" stroke-width="2" stroke-miterlimit="10" stroke-linecap="round" stroke-linejoin="round"/>
<path d="M5.25 13.635H30.75" stroke="#2958FF" stroke-width="2" stroke-miterlimit="10" stroke-linecap="round" stroke-linejoin="round"/>
<path d="M5.25 13.635H30.75" stroke="#0A8CEB" stroke-width="2" stroke-miterlimit="10" stroke-linecap="round" stroke-linejoin="round"/>
<path d="M5.25 13.635H30.75" stroke="#18B2E2" stroke-width="2" stroke-miterlimit="10" stroke-linecap="round" stroke-linejoin="round"/>
<path d="M5.25 13.635H30.75" stroke="#3EAAD2" stroke-width="2" stroke-miterlimit="10" stroke-linecap="round" stroke-linejoin="round"/>
<path d="M31.5 12.75V25.5C31.5 30 29.25 33 24 33H12C6.75 33 4.5 30 4.5 25.5V12.75C4.5 8.25 6.75 5.25 12 5.25H24C29.25 5.25 31.5 8.25 31.5 12.75Z" stroke="#2958FF" stroke-width="2" stroke-miterlimit="10" stroke-linecap="round" stroke-linejoin="round"/>
<path d="M31.5 12.75V25.5C31.5 30 29.25 33 24 33H12C6.75 33 4.5 30 4.5 25.5V12.75C4.5 8.25 6.75 5.25 12 5.25H24C29.25 5.25 31.5 8.25 31.5 12.75Z" stroke="#0A8CEB" stroke-width="2" stroke-miterlimit="10" stroke-linecap="round" stroke-linejoin="round"/>
<path d="M31.5 12.75V25.5C31.5 30 29.25 33 24 33H12C6.75 33 4.5 30 4.5 25.5V12.75C4.5 8.25 6.75 5.25 12 5.25H24C29.25 5.25 31.5 8.25 31.5 12.75Z" stroke="#18B2E2" stroke-width="2" stroke-miterlimit="10" stroke-linecap="round" stroke-linejoin="round"/>
<path d="M31.5 12.75V25.5C31.5 30 29.25 33 24 33H12C6.75 33 4.5 30 4.5 25.5V12.75C4.5 8.25 6.75 5.25 12 5.25H24C29.25 5.25 31.5 8.25 31.5 12.75Z" stroke="#3EAAD2" stroke-width="2" stroke-miterlimit="10" stroke-linecap="round" stroke-linejoin="round"/>
<path d="M17.9932 20.55H18.0067" stroke="#2958FF" stroke-width="3" stroke-linecap="round" stroke-linejoin="round"/>
<path d="M17.9932 20.55H18.0067" stroke="#0A8CEB" stroke-width="3" stroke-linecap="round" stroke-linejoin="round"/>
<path d="M17.9932 20.55H18.0067" stroke="#18B2E2" stroke-width="3" stroke-linecap="round" stroke-linejoin="round"/>
<path d="M17.9932 20.55H18.0067" stroke="#3EAAD2" stroke-width="3" stroke-linecap="round" stroke-linejoin="round"/>
<path d="M12.4415 20.55H12.4549" stroke="#2958FF" stroke-width="3" stroke-linecap="round" stroke-linejoin="round"/>
<path d="M12.4415 20.55H12.4549" stroke="#0A8CEB" stroke-width="3" stroke-linecap="round" stroke-linejoin="round"/>
<path d="M12.4415 20.55H12.4549" stroke="#18B2E2" stroke-width="3" stroke-linecap="round" stroke-linejoin="round"/>
<path d="M12.4415 20.55H12.4549" stroke="#3EAAD2" stroke-width="3" stroke-linecap="round" stroke-linejoin="round"/>
<path d="M12.4415 26.05H12.4549" stroke="#2958FF" stroke-width="3" stroke-linecap="round" stroke-linejoin="round"/>
<path d="M12.4415 26.05H12.4549" stroke="#0A8CEB" stroke-width="3" stroke-linecap="round" stroke-linejoin="round"/>
<path d="M12.4415 26.05H12.4549" stroke="#18B2E2" stroke-width="3" stroke-linecap="round" stroke-linejoin="round"/>
<path d="M12.4415 26.05H12.4549" stroke="#3EAAD2" stroke-width="3" stroke-linecap="round" stroke-linejoin="round"/>
</svg>
