<svg width="158" height="38" viewBox="0 0 158 38" fill="none" xmlns="http://www.w3.org/2000/svg">
<path d="M16.05 30V26.04H6.57V8.73H2.43V30H16.05ZM55.4055 11.58C56.0655 11.58 56.4555 11.67 56.6655 11.73V8.37C56.3355 8.22 55.5255 8.07 54.6855 8.07C51.4155 8.07 49.3155 10.23 49.3155 13.56V15.24H46.8555V18.66H49.3155V30H53.3355V18.66H56.6655V15.24H53.3355V13.62C53.3355 11.97 54.5055 11.58 55.4055 11.58ZM64.8234 10.83H61.2234V12.9C61.2234 14.22 60.5034 15.24 58.9434 15.24H58.1934V18.78H60.8634V25.65C60.8634 28.5 62.6634 30.21 65.5434 30.21C66.7134 30.21 67.4334 30 67.7934 29.85V26.55C67.5834 26.61 67.0434 26.67 66.5634 26.67C65.4234 26.67 64.8234 26.25 64.8234 24.96V18.78H67.7934V15.24H64.8234V10.83ZM89.307 30H93.927L89.367 21.3C92.157 20.49 93.897 18.24 93.897 15.27C93.897 11.58 91.257 8.73 87.117 8.73H78.807V30H82.977V21.81H85.137L89.307 30ZM82.977 18.24V12.33H86.337C88.437 12.33 89.667 13.5 89.667 15.3C89.667 17.04 88.437 18.24 86.337 18.24H82.977ZM96.1226 25.98C96.1226 28.29 98.0426 30.42 101.193 30.42C103.383 30.42 104.793 29.4 105.543 28.23C105.543 28.8 105.603 29.61 105.693 30H109.353C109.263 29.49 109.173 28.44 109.173 27.66V20.4C109.173 17.43 107.433 14.79 102.753 14.79C98.7926 14.79 96.6626 17.34 96.4226 19.65L99.9626 20.4C100.083 19.11 101.043 18 102.783 18C104.463 18 105.273 18.87 105.273 19.92C105.273 20.43 105.003 20.85 104.163 20.97L100.533 21.51C98.0726 21.87 96.1226 23.34 96.1226 25.98ZM102.033 27.45C100.743 27.45 100.113 26.61 100.113 25.74C100.113 24.6 100.923 24.03 101.943 23.88L105.273 23.37V24.03C105.273 26.64 103.713 27.45 102.033 27.45ZM127.206 8.28H123.276V16.71C122.856 15.93 121.656 14.88 119.106 14.88C114.936 14.88 112.026 18.27 112.026 22.59C112.026 27.06 115.026 30.36 119.226 30.36C121.206 30.36 122.706 29.46 123.366 28.29C123.366 28.98 123.456 29.7 123.516 30H127.326C127.266 29.4 127.206 28.32 127.206 27.33V8.28ZM116.046 22.59C116.046 19.95 117.666 18.45 119.706 18.45C121.746 18.45 123.336 19.92 123.336 22.56C123.336 25.23 121.746 26.79 119.706 26.79C117.606 26.79 116.046 25.23 116.046 22.59ZM130.546 25.98C130.546 28.29 132.466 30.42 135.616 30.42C137.806 30.42 139.216 29.4 139.966 28.23C139.966 28.8 140.026 29.61 140.116 30H143.776C143.686 29.49 143.596 28.44 143.596 27.66V20.4C143.596 17.43 141.856 14.79 137.176 14.79C133.216 14.79 131.086 17.34 130.846 19.65L134.386 20.4C134.506 19.11 135.466 18 137.206 18C138.886 18 139.696 18.87 139.696 19.92C139.696 20.43 139.426 20.85 138.586 20.97L134.956 21.51C132.496 21.87 130.546 23.34 130.546 25.98ZM136.456 27.45C135.166 27.45 134.536 26.61 134.536 25.74C134.536 24.6 135.346 24.03 136.366 23.88L139.696 23.37V24.03C139.696 26.64 138.136 27.45 136.456 27.45ZM156.618 15.18C156.318 15.15 156.018 15.12 155.688 15.12C154.428 15.12 152.388 15.48 151.488 17.43V15.24H147.618V30H151.608V23.25C151.608 20.07 153.378 19.08 155.418 19.08C155.778 19.08 156.168 19.11 156.618 19.2V15.18Z" fill="#191E28"/>
<g clip-path="url(#clip0_4036_13486)">
<path d="M31 8C24.3832 8 19 13.3832 19 20C19 26.6168 24.3832 32 31 32C37.6168 32 43 26.6168 43 20C43 13.3832 37.6168 8 31 8ZM31 28.1651C26.4978 28.1651 22.8349 24.5023 22.8349 20C22.8349 15.4978 26.4978 11.8349 31 11.8349C35.5023 11.8349 39.1651 15.4978 39.1651 20C39.1651 24.5023 35.5023 28.1651 31 28.1651Z" fill="#2958FF"/>
<path d="M31 8C24.3832 8 19 13.3832 19 20C19 26.6168 24.3832 32 31 32C37.6168 32 43 26.6168 43 20C43 13.3832 37.6168 8 31 8ZM31 28.1651C26.4978 28.1651 22.8349 24.5023 22.8349 20C22.8349 15.4978 26.4978 11.8349 31 11.8349C35.5023 11.8349 39.1651 15.4978 39.1651 20C39.1651 24.5023 35.5023 28.1651 31 28.1651Z" fill="#0A8CEB"/>
<path d="M31 8C24.3832 8 19 13.3832 19 20C19 26.6168 24.3832 32 31 32C37.6168 32 43 26.6168 43 20C43 13.3832 37.6168 8 31 8ZM31 28.1651C26.4978 28.1651 22.8349 24.5023 22.8349 20C22.8349 15.4978 26.4978 11.8349 31 11.8349C35.5023 11.8349 39.1651 15.4978 39.1651 20C39.1651 24.5023 35.5023 28.1651 31 28.1651Z" fill="#18B2E2"/>
<path d="M31 8C24.3832 8 19 13.3832 19 20C19 26.6168 24.3832 32 31 32C37.6168 32 43 26.6168 43 20C43 13.3832 37.6168 8 31 8ZM31 28.1651C26.4978 28.1651 22.8349 24.5023 22.8349 20C22.8349 15.4978 26.4978 11.8349 31 11.8349C35.5023 11.8349 39.1651 15.4978 39.1651 20C39.1651 24.5023 35.5023 28.1651 31 28.1651Z" fill="#3EAAD2"/>
<path d="M31.0001 13.5385C27.4372 13.5385 24.5386 16.4371 24.5386 20C24.5386 23.5629 27.4372 26.4615 31.0001 26.4615C34.563 26.4615 37.4617 23.5629 37.4617 20C37.4617 16.4371 34.563 13.5385 31.0001 13.5385ZM31.0001 23.3461C29.1551 23.3461 27.654 21.845 27.654 20C27.654 18.1549 29.1551 16.6538 31.0001 16.6538C32.8452 16.6538 34.3463 18.1549 34.3463 20C34.3463 21.845 32.8452 23.3461 31.0001 23.3461Z" fill="#2958FF"/>
<path d="M31.0001 13.5385C27.4372 13.5385 24.5386 16.4371 24.5386 20C24.5386 23.5629 27.4372 26.4615 31.0001 26.4615C34.563 26.4615 37.4617 23.5629 37.4617 20C37.4617 16.4371 34.563 13.5385 31.0001 13.5385ZM31.0001 23.3461C29.1551 23.3461 27.654 21.845 27.654 20C27.654 18.1549 29.1551 16.6538 31.0001 16.6538C32.8452 16.6538 34.3463 18.1549 34.3463 20C34.3463 21.845 32.8452 23.3461 31.0001 23.3461Z" fill="#0A8CEB"/>
<path d="M31.0001 13.5385C27.4372 13.5385 24.5386 16.4371 24.5386 20C24.5386 23.5629 27.4372 26.4615 31.0001 26.4615C34.563 26.4615 37.4617 23.5629 37.4617 20C37.4617 16.4371 34.563 13.5385 31.0001 13.5385ZM31.0001 23.3461C29.1551 23.3461 27.654 21.845 27.654 20C27.654 18.1549 29.1551 16.6538 31.0001 16.6538C32.8452 16.6538 34.3463 18.1549 34.3463 20C34.3463 21.845 32.8452 23.3461 31.0001 23.3461Z" fill="#18B2E2"/>
<path d="M31.0001 13.5385C27.4372 13.5385 24.5386 16.4371 24.5386 20C24.5386 23.5629 27.4372 26.4615 31.0001 26.4615C34.563 26.4615 37.4617 23.5629 37.4617 20C37.4617 16.4371 34.563 13.5385 31.0001 13.5385ZM31.0001 23.3461C29.1551 23.3461 27.654 21.845 27.654 20C27.654 18.1549 29.1551 16.6538 31.0001 16.6538C32.8452 16.6538 34.3463 18.1549 34.3463 20C34.3463 21.845 32.8452 23.3461 31.0001 23.3461Z" fill="#3EAAD2"/>
<path d="M31 18.1539C29.982 18.1539 29.1538 18.982 29.1538 20C29.1538 21.018 29.982 21.8462 31 21.8462C32.018 21.8462 32.8461 21.018 32.8461 20C32.8461 18.982 32.0179 18.1539 31 18.1539Z" fill="#2958FF"/>
<path d="M31 18.1539C29.982 18.1539 29.1538 18.982 29.1538 20C29.1538 21.018 29.982 21.8462 31 21.8462C32.018 21.8462 32.8461 21.018 32.8461 20C32.8461 18.982 32.0179 18.1539 31 18.1539Z" fill="#0A8CEB"/>
<path d="M31 18.1539C29.982 18.1539 29.1538 18.982 29.1538 20C29.1538 21.018 29.982 21.8462 31 21.8462C32.018 21.8462 32.8461 21.018 32.8461 20C32.8461 18.982 32.0179 18.1539 31 18.1539Z" fill="#18B2E2"/>
<path d="M31 18.1539C29.982 18.1539 29.1538 18.982 29.1538 20C29.1538 21.018 29.982 21.8462 31 21.8462C32.018 21.8462 32.8461 21.018 32.8461 20C32.8461 18.982 32.0179 18.1539 31 18.1539Z" fill="#3EAAD2"/>
</g>
<defs>
<clipPath id="clip0_4036_13486">
<rect width="24" height="24" fill="white" transform="translate(19 8)"/>
</clipPath>
</defs>
</svg>
