<svg width="40" height="40" viewBox="0 0 40 40" fill="none" xmlns="http://www.w3.org/2000/svg">
<path d="M33.3333 13.75V30C33.3333 35 30.35 36.6667 26.6666 36.6667H13.3333C9.64996 36.6667 6.66663 35 6.66663 30V13.75C6.66663 8.33333 9.64996 7.08333 13.3333 7.08333C13.3333 8.11666 13.7499 9.04999 14.4332 9.73332C15.1166 10.4167 16.05 10.8333 17.0833 10.8333H22.9166C24.9833 10.8333 26.6666 9.15 26.6666 7.08333C30.35 7.08333 33.3333 8.33333 33.3333 13.75Z" stroke="#2958FF" stroke-width="2" stroke-linecap="round" stroke-linejoin="round"/>
<path d="M33.3333 13.75V30C33.3333 35 30.35 36.6667 26.6666 36.6667H13.3333C9.64996 36.6667 6.66663 35 6.66663 30V13.75C6.66663 8.33333 9.64996 7.08333 13.3333 7.08333C13.3333 8.11666 13.7499 9.04999 14.4332 9.73332C15.1166 10.4167 16.05 10.8333 17.0833 10.8333H22.9166C24.9833 10.8333 26.6666 9.15 26.6666 7.08333C30.35 7.08333 33.3333 8.33333 33.3333 13.75Z" stroke="#0A8CEB" stroke-width="2" stroke-linecap="round" stroke-linejoin="round"/>
<path d="M33.3333 13.75V30C33.3333 35 30.35 36.6667 26.6666 36.6667H13.3333C9.64996 36.6667 6.66663 35 6.66663 30V13.75C6.66663 8.33333 9.64996 7.08333 13.3333 7.08333C13.3333 8.11666 13.7499 9.04999 14.4332 9.73332C15.1166 10.4167 16.05 10.8333 17.0833 10.8333H22.9166C24.9833 10.8333 26.6666 9.15 26.6666 7.08333C30.35 7.08333 33.3333 8.33333 33.3333 13.75Z" stroke="#18B2E2" stroke-width="2" stroke-linecap="round" stroke-linejoin="round"/>
<path d="M33.3333 13.75V30C33.3333 35 30.35 36.6667 26.6666 36.6667H13.3333C9.64996 36.6667 6.66663 35 6.66663 30V13.75C6.66663 8.33333 9.64996 7.08333 13.3333 7.08333C13.3333 8.11666 13.7499 9.04999 14.4332 9.73332C15.1166 10.4167 16.05 10.8333 17.0833 10.8333H22.9166C24.9833 10.8333 26.6666 9.15 26.6666 7.08333C30.35 7.08333 33.3333 8.33333 33.3333 13.75Z" stroke="#3EAAD2" stroke-width="2" stroke-linecap="round" stroke-linejoin="round"/>
<path d="M26.6667 7.08333C26.6667 9.15 24.9834 10.8333 22.9167 10.8333H17.0834C16.05 10.8333 15.1167 10.4167 14.4333 9.73332C13.75 9.04999 13.3334 8.11666 13.3334 7.08333C13.3334 5.01666 15.0167 3.33333 17.0834 3.33333H22.9167C23.95 3.33333 24.8834 3.75 25.5668 4.43333C26.2501 5.11667 26.6667 6.05 26.6667 7.08333Z" stroke="#2958FF" stroke-width="2" stroke-linecap="round" stroke-linejoin="round"/>
<path d="M26.6667 7.08333C26.6667 9.15 24.9834 10.8333 22.9167 10.8333H17.0834C16.05 10.8333 15.1167 10.4167 14.4333 9.73332C13.75 9.04999 13.3334 8.11666 13.3334 7.08333C13.3334 5.01666 15.0167 3.33333 17.0834 3.33333H22.9167C23.95 3.33333 24.8834 3.75 25.5668 4.43333C26.2501 5.11667 26.6667 6.05 26.6667 7.08333Z" stroke="#0A8CEB" stroke-width="2" stroke-linecap="round" stroke-linejoin="round"/>
<path d="M26.6667 7.08333C26.6667 9.15 24.9834 10.8333 22.9167 10.8333H17.0834C16.05 10.8333 15.1167 10.4167 14.4333 9.73332C13.75 9.04999 13.3334 8.11666 13.3334 7.08333C13.3334 5.01666 15.0167 3.33333 17.0834 3.33333H22.9167C23.95 3.33333 24.8834 3.75 25.5668 4.43333C26.2501 5.11667 26.6667 6.05 26.6667 7.08333Z" stroke="#18B2E2" stroke-width="2" stroke-linecap="round" stroke-linejoin="round"/>
<path d="M26.6667 7.08333C26.6667 9.15 24.9834 10.8333 22.9167 10.8333H17.0834C16.05 10.8333 15.1167 10.4167 14.4333 9.73332C13.75 9.04999 13.3334 8.11666 13.3334 7.08333C13.3334 5.01666 15.0167 3.33333 17.0834 3.33333H22.9167C23.95 3.33333 24.8834 3.75 25.5668 4.43333C26.2501 5.11667 26.6667 6.05 26.6667 7.08333Z" stroke="#3EAAD2" stroke-width="2" stroke-linecap="round" stroke-linejoin="round"/>
<path d="M13.3334 21.6667H20" stroke="#2958FF" stroke-width="2" stroke-linecap="round" stroke-linejoin="round"/>
<path d="M13.3334 21.6667H20" stroke="#0A8CEB" stroke-width="2" stroke-linecap="round" stroke-linejoin="round"/>
<path d="M13.3334 21.6667H20" stroke="#18B2E2" stroke-width="2" stroke-linecap="round" stroke-linejoin="round"/>
<path d="M13.3334 21.6667H20" stroke="#3EAAD2" stroke-width="2" stroke-linecap="round" stroke-linejoin="round"/>
<path d="M13.3334 28.3333H26.6667" stroke="#2958FF" stroke-width="2" stroke-linecap="round" stroke-linejoin="round"/>
<path d="M13.3334 28.3333H26.6667" stroke="#0A8CEB" stroke-width="2" stroke-linecap="round" stroke-linejoin="round"/>
<path d="M13.3334 28.3333H26.6667" stroke="#18B2E2" stroke-width="2" stroke-linecap="round" stroke-linejoin="round"/>
<path d="M13.3334 28.3333H26.6667" stroke="#3EAAD2" stroke-width="2" stroke-linecap="round" stroke-linejoin="round"/>
</svg>
